<svg viewBox="0 0 24 24" xmlns="http://www.w3.org/2000/svg">
<path d="M14.0341 12.0003L23.0785 2.95579C23.6405 2.39434 23.6405 1.48337 23.0785 0.921931C22.5167 0.360007 21.6066 0.360007 21.0447 0.921931L12.0002 9.9664L2.9553 0.921931C2.39337 0.360007 1.48337 0.360007 0.921443 0.921931C0.359519 1.48337 0.359519 2.39434 0.921443 2.95579L9.96639 12.0003L0.921443 21.0448C0.359519 21.6062 0.359519 22.5171 0.921443 23.0785C1.2024 23.359 1.57062 23.4995 1.93837 23.4995C2.30611 23.4995 2.67433 23.359 2.9553 23.0781L12.0002 14.0336L21.0447 23.0781C21.3256 23.359 21.6939 23.4995 22.0616 23.4995C22.4293 23.4995 22.7976 23.359 23.0785 23.0781C23.6405 22.5167 23.6405 21.6057 23.0785 21.0443L14.0341 12.0003Z"/>
</svg>
