<svg width="24" height="24" viewBox="0 0 24 24"  xmlns="http://www.w3.org/2000/svg">
<path d="M12 1C9.01258 1 8.63798 1.01266 7.46471 1.0662C6.29389 1.11964 5.49426 1.30556 4.79454 1.57751C4.07119 1.85862 3.45775 2.23475 2.84623 2.84627C2.2347 3.45779 1.85858 4.07123 1.57746 4.79458C1.30552 5.49426 1.1196 6.29389 1.06615 7.46471C1.01262 8.63798 1 9.01258 1 12C1 14.9874 1.01262 15.362 1.06615 16.5353C1.1196 17.7061 1.30552 18.5057 1.57746 19.2054C1.85858 19.9288 2.2347 20.5422 2.84623 21.1538C3.45775 21.7653 4.07119 22.1414 4.79454 22.4225C5.49426 22.6944 6.29389 22.8804 7.46471 22.9338C8.63798 22.9873 9.01258 23 12 23C14.9874 23 15.362 22.9873 16.5353 22.9338C17.7061 22.8804 18.5057 22.6944 19.2054 22.4225C19.9288 22.1414 20.5422 21.7653 21.1538 21.1538C21.7653 20.5422 22.1414 19.9288 22.4225 19.2054C22.6944 18.5057 22.8804 17.7061 22.9338 16.5353C22.9873 15.362 23 14.9874 23 12C23 9.01258 22.9873 8.63798 22.9338 7.46471C22.8804 6.29389 22.6944 5.49426 22.4225 4.79458C22.1414 4.07123 21.7653 3.45779 21.1538 2.84627C20.5422 2.23475 19.9288 1.85862 19.2054 1.57751C18.5057 1.30556 17.7061 1.11964 16.5353 1.0662C15.362 1.01266 14.9874 1 12 1ZM12 2.98202C14.9371 2.98202 15.285 2.9932 16.4449 3.04612C17.5174 3.09507 18.0999 3.27427 18.4875 3.42487C19.0009 3.62442 19.3674 3.86282 19.7523 4.24773C20.1372 4.63263 20.3756 4.99911 20.5751 5.51251C20.7258 5.90013 20.905 6.48257 20.9539 7.55506C21.0068 8.71496 21.018 9.06288 21.018 12C21.018 14.9371 21.0068 15.285 20.9539 16.4449C20.905 17.5174 20.7258 18.0999 20.5751 18.4875C20.3756 19.0009 20.1372 19.3674 19.7523 19.7523C19.3674 20.1372 19.0009 20.3756 18.4875 20.5751C18.0999 20.7258 17.5174 20.905 16.4449 20.9539C15.2852 21.0068 14.9373 21.018 12 21.018C9.06266 21.018 8.71483 21.0068 7.55506 20.9539C6.48257 20.905 5.90013 20.7258 5.51251 20.5751C4.99906 20.3756 4.63263 20.1372 4.24768 19.7523C3.86278 19.3674 3.62437 19.0009 3.42487 18.4875C3.27423 18.0999 3.09503 17.5174 3.04608 16.4449C2.99316 15.285 2.98198 14.9371 2.98198 12C2.98198 9.06288 2.99316 8.71496 3.04608 7.55506C3.09503 6.48257 3.27423 5.90013 3.42487 5.51251C3.62437 4.99911 3.86278 4.63263 4.24768 4.24773C4.63263 3.86282 4.99906 3.62442 5.51251 3.42487C5.90013 3.27427 6.48257 3.09507 7.55506 3.04612C8.71496 2.9932 9.06288 2.98202 12 2.98202Z" />
<path d="M12.0004 15.6654C9.97534 15.6654 8.33372 14.0238 8.33372 11.9988C8.33372 9.97369 9.97534 8.33208 12.0004 8.33208C14.0254 8.33208 15.6671 9.97369 15.6671 11.9988C15.6671 14.0238 14.0254 15.6654 12.0004 15.6654ZM12.0004 6.3501C8.88071 6.3501 6.35175 8.87906 6.35175 11.9988C6.35175 15.1184 8.88071 17.6474 12.0004 17.6474C15.1201 17.6474 17.649 15.1184 17.649 11.9988C17.649 8.87906 15.1201 6.3501 12.0004 6.3501Z" />
<path d="M19.1916 6.13443C19.1916 6.86346 18.6006 7.45441 17.8716 7.45441C17.1426 7.45441 16.5516 6.86346 16.5516 6.13443C16.5516 5.40541 17.1426 4.81445 17.8716 4.81445C18.6006 4.81445 19.1916 5.40541 19.1916 6.13443Z" />
</svg>
