<svg width="22" height="22" viewBox="0 0 22 22"  xmlns="http://www.w3.org/2000/svg">

<path d="M11.2542 5.335C10.8102 4.891 10.8102 4.192 11.2542 3.748C11.6982 3.319 12.3972 3.319 12.8412 3.748L19.4922 10.398C19.6982 10.604 19.8252 10.89 19.8252 11.207C19.8252 11.524 19.6982 11.81 19.4922 12.017L12.8412 18.667C12.3972 19.111 11.6982 19.111 11.2542 18.667C10.8102 18.223 10.8102 17.524 11.2542 17.08L16.0162 12.334L-0.888756 12.334C-1.50776 12.335 -1.99976 11.827 -1.99976 11.208C-1.99976 10.589 -1.50776 10.097 -0.888756 10.097L16.0152 10.097L11.2542 5.335Z" />

</svg>
